<svg viewBox="0 0 410 335" version="1.1" xmlns="http://www.w3.org/2000/svg" xmlns:xlink="http://www.w3.org/1999/xlink">
  <g id="Page-1" stroke="none" stroke-width="1" fill="none" fill-rule="evenodd">
    <g id="Robot" fill="#000000">
      <g id="folder" fill-rule="nonzero">
        <path d="M392.848333,109.387755 L369,109.387755 L369,66.535102 C369,56.2321429 360.622333,47.8571429 350.331333,47.8571429 L181.185833,47.8571429 L147.019167,0 L18.6686667,0 C8.37766667,0 0,8.38183673 0,18.6779592 L0,317.354388 L0.041,317.354388 C0.00683333333,321.203469 1.20266667,324.97051 3.608,328.122245 C6.95633333,332.497755 12.0266667,335 17.5275,335 L323.380667,335 C331.28,335 338.236333,329.674184 340.122333,322.605 L410,130.916633 L410,129.706531 C410,117.933673 402.784,109.387755 392.848333,109.387755 Z M13.6666667,18.6779592 C13.6666667,15.9159184 15.9148333,13.6734694 18.6686667,13.6734694 L139.980833,13.6734694 L174.1475,61.5306122 L350.3245,61.5306122 C353.085167,61.5306122 355.3265,63.7730612 355.3265,66.535102 L355.3265,109.387755 L86.9951667,109.387755 C86.0111667,109.387755 85.034,109.469796 84.0841667,109.633878 C77.4353333,110.748265 71.9071667,115.602347 70.2603333,121.775918 L13.6666667,276.197245 L13.6666667,18.6779592 Z M327.104833,318.475612 C326.653833,320.150612 325.116333,321.326531 323.380667,321.326531 L17.5275,321.326531 C15.867,321.326531 14.8966667,320.376224 14.4661667,319.808776 C14.0356667,319.248163 13.3728333,318.058571 13.6256667,317.019388 L83.2641667,125.912143 C83.7151667,124.237143 85.2526667,123.061224 86.9883333,123.061224 L369,123.061224 L392.848333,123.061224 C395.445,123.061224 396.107833,126.794082 396.278667,128.66051 L327.104833,318.475612 Z" id="Shape"></path>
      </g>
      <g id="robot" transform="translate(110.000000, 127.000000)">
        <path d="M61.1133188,104.193549 L29.2895269,104.193549 C27.4993603,104.193549 26.0483871,105.565452 26.0483871,107.258065 C26.0483871,108.950677 27.4993603,110.32258 29.2895269,110.32258 L61.1133188,110.32258 C61.9728874,110.322939 62.7975112,110.000075 63.4056285,109.425097 C64.0133659,108.850478 64.3548384,108.070791 64.3548384,107.257705 C64.3552182,106.444978 64.0137457,105.665292 63.4056285,105.090314 C62.797891,104.516054 61.9732673,104.19319 61.1133188,104.193549 Z" id="Path"></path>
        <path d="M30.6448023,98.0645158 C31.4575293,98.0648749 32.2372157,97.7420297 32.8121941,97.167085 C33.3868133,96.5924995 33.7096774,95.8128588 33.7096774,94.9998202 L33.7096774,88.8707881 C33.7096774,87.1782746 32.337415,85.8064516 30.6451614,85.8064516 C28.9529079,85.8064516 27.5806455,87.1782746 27.5806455,88.8707881 L27.5806455,95.0001793 C27.5802863,95.8128588 27.9031505,96.5924995 28.4781288,97.1674442 C29.0523889,97.7420297 29.8320753,98.0648749 30.6448023,98.0645158 Z" id="Path"></path>
        <path d="M56.6931894,98.0645158 C57.5059164,98.0648749 58.2856028,97.7420297 58.8605812,97.167085 C59.4352004,96.5924995 59.7580645,95.8128588 59.7580645,94.9998202 L59.7580645,88.8707881 C59.7580645,87.1782746 58.3858021,85.8064516 56.6935485,85.8064516 C55.0009359,85.8064516 53.6290326,87.1782746 53.6290326,88.8707881 L53.6290326,95.0001793 C53.6286734,95.8128588 53.9515376,96.5924995 54.5265159,97.1674442 C55.100776,97.7420297 55.8804624,98.0648749 56.6931894,98.0645158 Z" id="Path"></path>
        <path d="M66.6530398,123.205597 C71.9094057,123.200006 76.1693234,118.931053 76.1749027,113.663539 L76.1749027,113.34224 C83.5636451,111.830793 88.8705958,105.317593 88.8705958,97.7603583 C88.8705958,90.2031232 83.5636451,83.6899234 76.1749027,82.1784764 L76.1749027,81.8571775 C76.1693234,76.5896635 71.9094057,72.3207109 66.6530398,72.3151199 L50.7827725,72.3151199 L55.8620912,68.4975513 C56.5353167,67.9917477 56.9805382,67.2388198 57.0999334,66.4038897 C57.2189567,65.5689597 57.0024831,64.7209839 56.49775,64.0463306 L52.3568555,58.5119372 C55.1289822,54.5173187 54.6063956,49.0988464 51.1227328,45.709925 C47.63907,42.3210036 42.2190471,41.9587036 38.3169431,44.853749 C34.4148391,47.7487944 33.1788567,53.0498546 35.3967812,57.3780723 C37.6147057,61.70629 42.6337689,63.7883968 47.2552199,62.2974503 L49.5148026,65.3169897 L40.204578,72.3151199 L22.217556,72.3151199 C16.9611901,72.3207109 12.7012723,76.5896635 12.6956931,81.8571775 L12.6956931,82.1784764 C5.30695074,83.6895507 0,90.2031232 0,97.7599856 C0,105.317221 5.30695074,111.83042 12.6956931,113.341867 L12.6956931,113.663166 C12.7012723,118.93068 16.9611901,123.199633 22.217556,123.205224 L31.7394188,123.205224 L31.7394188,135.927843 L12.6956931,135.927843 C5.68708136,135.935671 0.00743895534,141.627732 0,148.651208 L0,180.457942 C0.00409142544,183.969494 2.84354068,186.815338 6.34803254,186.819438 L13.5790691,186.819438 C14.7042111,188.780778 16.7863747,189.992545 19.0437257,190 L69.8268701,190 C73.33099,189.9959 76.1708112,187.150429 76.1749027,183.638504 L82.5229352,183.638504 C86.0270551,183.634404 88.8668763,180.788933 88.8709677,177.277008 L88.8709677,148.650835 C88.8635288,141.627359 83.1838864,135.935671 76.1752746,135.928216 L57.1315489,135.928216 L57.1315489,123.205597 L66.6530398,123.205597 Z M76.1749027,88.7617507 C79.9791844,90.1106846 82.5225633,93.7161659 82.5225633,97.7603583 C82.5225633,101.804551 79.9795564,105.409659 76.1749027,106.758966 L76.1749027,88.7617507 Z M44.4354839,56.4111935 C42.682494,56.4111935 41.2616536,54.9869669 41.2616536,53.2306319 C41.2616536,51.4742969 42.682494,50.0500703 44.4354839,50.0500703 C46.1884737,50.0500703 47.6093142,51.4739242 47.6093142,53.2306319 C47.6074544,54.9865942 46.1877298,56.4093299 44.4354839,56.4111935 Z M12.6956931,106.758593 C8.89141137,105.409659 6.34803254,101.804178 6.34803254,97.7599856 C6.34803254,93.7157932 8.89103942,90.1106846 12.6956931,88.761378 L12.6956931,106.758593 Z M12.6956931,180.457942 L6.34803254,180.457942 L6.34803254,148.651208 C6.35212396,145.139656 9.19194516,142.293812 12.6960651,142.289712 L12.6960651,180.457942 L12.6956931,180.457942 Z M76.1749027,142.289712 C79.6790226,142.293812 82.5188438,145.139656 82.5229352,148.651208 L82.5229352,177.277381 L76.1749027,177.277381 L76.1749027,142.289712 Z M57.131177,183.638504 L31.7394188,183.638504 L31.7394188,155.012331 L57.131177,155.012331 L57.131177,183.638504 Z M69.8268701,142.289712 L69.8309616,180.436696 L69.8268701,180.457942 L69.8309616,180.479188 L69.8313335,183.638504 L63.4788376,183.638504 L63.4788376,155.012331 C63.4747462,151.500779 60.634925,148.654935 57.1308051,148.650835 L31.7394188,148.650835 C28.2352989,148.654935 25.3954777,151.500407 25.3913863,155.012331 L25.3913863,183.638504 L19.0437257,183.638504 L19.0437257,142.289712 L69.8268701,142.289712 Z M38.0874513,135.928216 L38.0874513,123.205597 L50.7831445,123.205597 L50.7831445,135.928216 L38.0874513,135.928216 Z M22.217556,116.844101 C20.46531,116.842237 19.0452135,115.419501 19.0437257,113.663539 L19.0437257,81.8568047 C19.0455854,80.1008425 20.46531,78.677734 22.217556,78.6762431 L66.6530398,78.6762431 C68.4052858,78.6781068 69.8253823,80.1008425 69.8268701,81.8568047 L69.8268701,113.663539 C69.8250104,115.419501 68.4052858,116.84261 66.6530398,116.844101 L22.217556,116.844101 Z" id="Shape" fill-rule="nonzero"></path>
        <path d="M131.987924,19.9567219 C120.722116,19.4783963 109.749047,23.6088825 101.609398,31.3915292 C93.4693762,39.1741759 88.8683322,49.934269 88.8713155,61.1808705 C88.8176155,74.2161715 94.9860277,86.499021 105.484747,94.2626984 C108.967414,96.7283438 111.069172,100.697032 111.146738,104.956213 L111.146738,109.375331 C108.136929,110.414182 105.853561,112.893962 105.071928,115.973322 C104.290295,119.052682 105.114441,122.317645 107.265423,124.660175 C104.722505,127.440117 104.069156,131.457159 105.599978,134.896565 C107.1308,138.335971 110.556411,140.54646 114.329208,140.530094 L114.650662,140.530094 C116.162838,147.918848 122.679182,153.225806 130.240064,153.225806 C137.800947,153.225806 144.31729,147.918848 145.829467,140.530094 L146.150921,140.530094 C149.923717,140.54646 153.349328,138.335971 154.880151,134.896565 C156.410973,131.457159 155.757623,127.440489 153.214705,124.660175 C155.365688,122.317645 156.190206,119.052682 155.4082,115.973322 C154.626194,112.893962 152.342827,110.414182 149.33339,109.375331 L149.33339,104.940591 C149.379259,100.73088 151.438877,96.7964103 154.875676,94.3523379 C168.957377,83.9377848 174.932245,65.8034443 169.789726,49.0873427 C164.647207,32.371985 149.502694,20.7013624 131.987924,19.9567219 Z M130.240064,146.877764 C126.207718,146.86549 122.619515,144.323223 121.279999,140.529722 L139.200502,140.529722 C137.860613,144.323595 134.272411,146.86549 130.240064,146.877764 Z M146.150921,134.182052 L114.328835,134.182052 C112.571279,134.182052 111.146738,132.76121 111.146738,131.008217 C111.146738,129.255225 112.571279,127.834382 114.328835,127.834382 L146.150921,127.834382 C147.908476,127.834382 149.333017,129.255225 149.333017,131.008217 C149.333017,132.76121 147.908476,134.182052 146.150921,134.182052 Z M146.150921,121.48634 L114.328835,121.48634 C112.571279,121.48634 111.146738,120.065498 111.146738,118.312505 C111.146738,116.559513 112.571279,115.13867 114.328835,115.13867 L146.150921,115.13867 C147.908476,115.13867 149.333017,116.559513 149.333017,118.312505 C149.333017,120.065498 147.908476,121.48634 146.150921,121.48634 Z M151.079758,89.2570178 C146.018908,92.8920688 143.004624,98.720499 142.968824,104.940963 L142.968824,108.790628 L117.510932,108.790628 L117.510932,104.956585 C117.442315,98.6948346 114.394095,92.8385082 109.298937,89.1796526 C96.9874707,80.0167056 92.1015184,63.9202699 97.2503769,49.4849554 C102.398862,35.049641 116.379503,25.6475312 131.726882,26.2984408 C146.546958,26.9333566 159.358505,36.8119321 163.706712,50.9574989 C168.054919,65.1026936 162.996306,80.445934 151.079758,89.2570178 Z" id="Shape" fill-rule="nonzero"></path>
        <path d="M130.241936,12.2580645 C131.934548,12.2580645 133.306452,10.8858422 133.306452,9.19363817 L133.306452,3.06442635 C133.306452,1.3718632 131.934548,0 130.241936,0 C128.549323,0 127.177419,1.3718632 127.177419,3.06442635 L127.177419,9.19363817 C127.17706,10.8862013 128.549323,12.2580645 130.241936,12.2580645 Z" id="Path"></path>
        <path d="M167.783006,17.7749217 L163.339331,22.2177553 C162.545647,23.0115524 162.236051,24.1680072 162.526504,25.2522986 C162.816958,26.3362219 163.663652,27.183037 164.747422,27.4735314 C165.831191,27.7640257 166.98785,27.4540178 167.781534,26.6605889 L172.225209,22.2177553 C173.451812,20.990978 173.451812,19.0020672 172.225209,17.7749217 C170.998238,16.5481444 169.00961,16.5481444 167.783006,17.7749217 Z" id="Path"></path>
        <path d="M91.1700911,26.6605645 C92.3966969,27.8873387 94.3853298,27.8873387 95.6123037,26.6605645 C96.8389095,25.4337902 96.8389095,23.4448844 95.6123037,22.2177419 L91.1686186,17.7749194 C89.9420128,16.5481452 87.9530118,16.5481452 86.726406,17.7749194 C85.4998002,19.0016936 85.4998002,20.9905995 86.726406,22.2177419 L91.1700911,26.6605645 Z" id="Path"></path>
        <path d="M186.935574,56.6935484 L180.806362,56.6935484 C179.113799,56.6935484 177.741935,58.0654518 177.741935,59.7580645 C177.741935,61.4506773 179.113799,62.8225806 180.806362,62.8225806 L186.935574,62.8225806 C188.628137,62.8225806 190,61.4506773 190,59.7580645 C190,58.0654518 188.628137,56.6935484 186.935574,56.6935484 Z" id="Path"></path>
        <path d="M72.0160393,62.8225806 L78.1452511,62.8225806 C79.8378142,62.8225806 81.2096774,61.4506773 81.2096774,59.7580645 C81.2096774,58.0654518 79.8374551,56.6935484 78.1452511,56.6935484 L72.0160393,56.6935484 C70.3234761,56.6935484 68.9516129,58.0654518 68.9516129,59.7580645 C68.9516129,61.4506773 70.3234761,62.8225806 72.0160393,62.8225806 Z" id="Path"></path>
        <path d="M130.216479,30.6451613 C120.292648,30.6731719 111.128095,36.3577789 106.143006,45.5775639 C105.287054,47.1644454 105.790343,49.196385 107.266896,50.1164572 C108.743088,51.0353624 110.633134,50.4957682 111.489811,48.9104429 C115.365492,41.7346576 122.495168,37.308196 130.216841,37.2844647 C131.923314,37.2844647 133.306452,35.7979548 133.306452,33.964813 C133.30609,32.1316712 131.922952,30.6451613 130.216479,30.6451613 Z" id="Path"></path>
        <path d="M107.073564,61.2903226 C107.073564,59.5977098 105.742958,58.2258065 104.101298,58.2258065 C102.459638,58.2258065 101.129032,59.5977098 101.129032,61.2903226 C101.129032,62.4417158 101.198349,63.5923908 101.336635,64.7348057 C101.522292,66.266525 102.784277,67.4172 104.281383,67.4193548 C104.406083,67.4186366 104.530436,67.4107356 104.65444,67.3952927 C106.282864,67.1851975 107.438261,65.6538373 107.234839,63.9745126 C107.127554,63.0845711 107.073564,62.187806 107.073564,61.2903226 Z" id="Path"></path>
      </g>
    </g>
  </g>
</svg>
