<?xml version="1.0" encoding="UTF-8"?>
<svg width="600px" height="240px" viewBox="0 0 600 240" version="1.1" xmlns="http://www.w3.org/2000/svg" xmlns:xlink="http://www.w3.org/1999/xlink">
    <!-- Generator: Sketch 46.2 (44496) - http://www.bohemiancoding.com/sketch -->
    <title>SpronQ blog header</title>
    <desc>Created with Sketch.</desc>
    <defs></defs>
    <g id="Website" stroke="none" stroke-width="1" fill="none" fill-rule="evenodd">
        <g id="SpronQ-blog-header" fill="#2E3191">
            <g id="dots" transform="translate(232.000000, 18.000000)">
                <g>
                    <path d="M71.280894,2.76623922 C71.280894,4.07464444 70.2240368,5.13417386 68.9189316,5.13417386 C67.6138263,5.13417386 66.5559391,4.07464444 66.5559391,2.76623922 C66.5559391,1.45680131 67.6138263,0.397271895 68.9189316,0.397271895 C70.2240368,0.397271895 71.280894,1.45680131 71.280894,2.76623922" id="Fill-1"></path>
                    <path d="M58.1589722,10.4059007 C58.1589722,11.7143059 57.102115,12.7738353 55.7970098,12.7738353 C54.4908744,12.7738353 53.4340173,11.7143059 53.4340173,10.4059007 C53.4340173,9.0985281 54.4908744,8.03693333 55.7970098,8.03693333 C57.102115,8.03693333 58.1589722,9.0985281 58.1589722,10.4059007" id="Fill-3"></path>
                    <path d="M84.405288,10.4059007 C84.405288,11.7143059 83.3463707,12.7738353 82.0412654,12.7738353 C80.7351301,12.7738353 79.6782729,11.7143059 79.6782729,10.4059007 C79.6782729,9.0985281 80.7351301,8.03693333 82.0412654,8.03693333 C83.3463707,8.03693333 84.405288,9.0985281 84.405288,10.4059007" id="Fill-5"></path>
                    <path d="M45.0371534,18.0461817 C45.0371534,19.3545869 43.9802962,20.4141163 42.6741609,20.4141163 C41.3700857,20.4141163 40.3111684,19.3545869 40.3111684,18.0461817 C40.3111684,16.7367438 41.3700857,15.6772144 42.6741609,15.6772144 C43.9802962,15.6772144 45.0371534,16.7367438 45.0371534,18.0461817" id="Fill-7"></path>
                    <path d="M71.280894,18.0441163 C71.280894,19.3545869 70.2240368,20.4141163 68.9189316,20.4141163 C67.6138263,20.4141163 66.5559391,19.3545869 66.5559391,18.0441163 C66.5559391,16.7367438 67.6138263,15.6772144 68.9189316,15.6772144 C70.2240368,15.6772144 71.280894,16.7367438 71.280894,18.0441163" id="Fill-9"></path>
                    <path d="M84.405288,25.683881 C84.405288,26.9943516 83.3463707,28.053881 82.0412654,28.053881 C80.7371902,28.053881 79.6782729,26.9943516 79.6782729,25.683881 C79.6782729,24.3765085 80.7371902,23.3149137 82.0412654,23.3149137 C83.3463707,23.3149137 84.405288,24.3765085 84.405288,25.683881" id="Fill-11"></path>
                    <path d="M110.650059,25.683881 C110.650059,26.9943516 109.593202,28.053881 108.288096,28.053881 C106.981961,28.053881 105.925104,26.9943516 105.925104,25.683881 C105.925104,24.3765085 106.981961,23.3149137 108.288096,23.3149137 C109.593202,23.3149137 110.650059,24.3765085 110.650059,25.683881" id="Fill-13"></path>
                    <path d="M31.9162617,25.6858431 C31.9162617,26.9942484 30.8573444,28.0537778 29.5532692,28.0537778 C28.2461038,28.0537778 27.1892466,26.9942484 27.1892466,25.6858431 C27.1892466,24.3764052 28.2461038,23.3168758 29.5532692,23.3168758 C30.8573444,23.3168758 31.9162617,24.3764052 31.9162617,25.6858431" id="Fill-15"></path>
                    <path d="M58.1589722,25.683881 C58.1589722,26.9943516 57.102115,28.053881 55.7970098,28.053881 C54.4908744,28.053881 53.4340173,26.9943516 53.4340173,25.683881 C53.4340173,24.3765085 54.4908744,23.3149137 55.7970098,23.3149137 C57.102115,23.3149137 58.1589722,24.3765085 58.1589722,25.683881" id="Fill-17"></path>
                    <path d="M71.280894,33.3250915 C71.280894,34.6345294 70.2240368,35.6940588 68.9209917,35.6940588 C67.6138263,35.6940588 66.5559391,34.6345294 66.5559391,33.3250915 C66.5559391,32.0166863 67.6138263,30.9550915 68.9209917,30.9550915 C70.2240368,30.9550915 71.280894,32.0166863 71.280894,33.3250915" id="Fill-19"></path>
                    <path d="M123.773011,33.3250915 C123.773011,34.6345294 122.716153,35.6940588 121.410018,35.6940588 C120.104913,35.6940588 119.045995,34.6345294 119.045995,33.3250915 C119.045995,32.0166863 120.104913,30.9550915 121.410018,30.9550915 C122.716153,30.9550915 123.773011,32.0166863 123.773011,33.3250915" id="Fill-21"></path>
                    <path d="M18.7933098,33.3250915 C18.7933098,34.6345294 17.7364526,35.6940588 16.4292872,35.6940588 C15.125212,35.6940588 14.0683549,34.6345294 14.0683549,33.3250915 C14.0683549,32.0166863 15.125212,30.9550915 16.4292872,30.9550915 C17.7364526,30.9550915 18.7933098,32.0166863 18.7933098,33.3250915" id="Fill-23"></path>
                    <path d="M45.0371534,33.3250915 C45.0371534,34.6345294 43.9802962,35.6940588 42.6741609,35.6940588 C41.3700857,35.6940588 40.3111684,34.6345294 40.3111684,33.3250915 C40.3111684,32.0166863 41.3700857,30.9550915 42.6741609,30.9550915 C43.9802962,30.9550915 45.0371534,32.0166863 45.0371534,33.3250915" id="Fill-25"></path>
                    <path d="M58.1589722,40.9647529 C58.1589722,42.2721255 57.102115,43.3337203 55.7970098,43.3337203 C54.4908744,43.3337203 53.4340173,42.2721255 53.4340173,40.9647529 C53.4340173,39.6563477 54.4908744,38.5947529 55.7970098,38.5947529 C57.102115,38.5947529 58.1589722,39.6563477 58.1589722,40.9647529" id="Fill-27"></path>
                    <path d="M84.405288,40.9647529 C84.405288,42.2721255 83.3463707,43.3337203 82.0412654,43.3337203 C80.7351301,43.3337203 79.6782729,42.2721255 79.6782729,40.9647529 C79.6782729,39.6563477 80.7351301,38.5947529 82.0412654,38.5947529 C83.3463707,38.5947529 84.405288,39.6563477 84.405288,40.9647529" id="Fill-29"></path>
                    <path d="M110.650059,40.9647529 C110.650059,42.2721255 109.593202,43.3337203 108.286036,43.3337203 C106.981961,43.3337203 105.925104,42.2721255 105.925104,40.9647529 C105.925104,39.6563477 106.981961,38.5947529 108.286036,38.5947529 C109.593202,38.5947529 110.650059,39.6563477 110.650059,40.9647529" id="Fill-31"></path>
                    <path d="M136.895859,40.9647529 C136.895859,42.2721255 135.837972,43.3337203 134.532867,43.3337203 C133.227762,43.3337203 132.169874,42.2721255 132.169874,40.9647529 C132.169874,39.6563477 133.227762,38.5947529 134.532867,38.5947529 C135.837972,38.5947529 136.895859,39.6563477 136.895859,40.9647529" id="Fill-33"></path>
                    <path d="M5.67149098,40.9647529 C5.67149098,42.2721255 4.61257368,43.3337203 3.3084985,43.3337203 C2.00339323,43.3337203 0.94447594,42.2721255 0.94447594,40.9647529 C0.94447594,39.6563477 2.00339323,38.5947529 3.3084985,38.5947529 C4.61257368,38.5947529 5.67149098,39.6563477 5.67149098,40.9647529" id="Fill-35"></path>
                    <path d="M31.9142015,40.9647529 C31.9142015,42.2721255 30.8573444,43.3337203 29.5532692,43.3337203 C28.2461038,43.3337203 27.1892466,42.2721255 27.1892466,40.9647529 C27.1892466,39.6563477 28.2461038,38.5947529 29.5532692,38.5947529 C30.8573444,38.5947529 31.9142015,39.6563477 31.9142015,40.9647529" id="Fill-37"></path>
                    <path d="M45.0371534,48.6045176 C45.0371534,49.9118902 43.9792662,50.973485 42.6741609,50.973485 C41.3700857,50.973485 40.3111684,49.9118902 40.3111684,48.6045176 C40.3111684,47.2940471 41.3700857,46.2345176 42.6741609,46.2345176 C43.9792662,46.2345176 45.0371534,47.2940471 45.0371534,48.6045176" id="Fill-39"></path>
                    <path d="M71.280894,48.6045176 C71.280894,49.9118902 70.2240368,50.973485 68.9189316,50.973485 C67.6138263,50.973485 66.5559391,49.9118902 66.5559391,48.6045176 C66.5559391,47.2940471 67.6138263,46.2345176 68.9189316,46.2345176 C70.2240368,46.2345176 71.280894,47.2940471 71.280894,48.6045176" id="Fill-41"></path>
                    <path d="M123.773011,48.6045176 C123.773011,49.9118902 122.716153,50.973485 121.410018,50.973485 C120.104913,50.973485 119.045995,49.9118902 119.045995,48.6045176 C119.045995,47.2940471 120.104913,46.2345176 121.410018,46.2345176 C122.716153,46.2345176 123.773011,47.2940471 123.773011,48.6045176" id="Fill-43"></path>
                    <path d="M18.7933098,48.6045176 C18.7933098,49.9118902 17.7343925,50.973485 16.4292872,50.973485 C15.125212,50.973485 14.0662947,49.9118902 14.0662947,48.6045176 C14.0662947,47.2940471 15.125212,46.2345176 16.4292872,46.2345176 C17.7343925,46.2345176 18.7933098,47.2940471 18.7933098,48.6045176" id="Fill-45"></path>
                    <path d="M58.1589722,56.219498 C58.1589722,57.5310013 57.102115,58.589498 55.7970098,58.589498 C54.4908744,58.589498 53.4340173,57.5310013 53.4340173,56.219498 C53.4340173,54.9121255 54.4908744,53.8525961 55.7970098,53.8525961 C57.102115,53.8525961 58.1589722,54.9121255 58.1589722,56.219498" id="Fill-47"></path>
                    <path d="M84.405288,56.219498 C84.405288,57.5310013 83.3463707,58.589498 82.0412654,58.589498 C80.7351301,58.589498 79.6782729,57.5310013 79.6782729,56.219498 C79.6782729,54.9121255 80.7351301,53.8525961 82.0412654,53.8525961 C83.3463707,53.8525961 84.405288,54.9121255 84.405288,56.219498" id="Fill-49"></path>
                    <path d="M110.650059,56.219498 C110.650059,57.5310013 109.593202,58.589498 108.286036,58.589498 C106.981961,58.589498 105.925104,57.5310013 105.925104,56.219498 C105.925104,54.9121255 106.981961,53.8525961 108.286036,53.8525961 C109.593202,53.8525961 110.650059,54.9121255 110.650059,56.219498" id="Fill-51"></path>
                    <path d="M136.895859,56.219498 C136.895859,57.5310013 135.837972,58.589498 134.532867,58.589498 C133.227762,58.589498 132.169874,57.5310013 132.169874,56.219498 C132.169874,54.9121255 133.227762,53.8525961 134.532867,53.8525961 C135.837972,53.8525961 136.895859,54.9121255 136.895859,56.219498" id="Fill-53"></path>
                    <path d="M5.67149098,56.219498 C5.67149098,57.5310013 4.61257368,58.589498 3.3084985,58.589498 C2.00339323,58.589498 0.94447594,57.5310013 0.94447594,56.219498 C0.94447594,54.9121255 2.00339323,53.8525961 3.3084985,53.8525961 C4.61257368,53.8525961 5.67149098,54.9121255 5.67149098,56.219498" id="Fill-55"></path>
                    <path d="M31.9142015,56.219498 C31.9142015,57.5310013 30.8573444,58.589498 29.5532692,58.589498 C28.2461038,58.589498 27.1892466,57.5310013 27.1892466,56.219498 C27.1892466,54.9121255 28.2461038,53.8525961 29.5532692,53.8525961 C30.8573444,53.8525961 31.9142015,54.9121255 31.9142015,56.219498" id="Fill-57"></path>
                    <path d="M45.0371534,63.8596758 C45.0371534,65.168081 43.9792662,66.2296758 42.6741609,66.2296758 C41.3700857,66.2296758 40.3111684,65.168081 40.3111684,63.8596758 C40.3111684,62.5502379 41.3700857,61.4907085 42.6741609,61.4907085 C43.9792662,61.4907085 45.0371534,62.5502379 45.0371534,63.8596758" id="Fill-59"></path>
                    <path d="M71.280894,63.8596758 C71.280894,65.168081 70.2240368,66.2296758 68.9189316,66.2296758 C67.6138263,66.2296758 66.5559391,65.168081 66.5559391,63.8596758 C66.5559391,62.5502379 67.6138263,61.4907085 68.9189316,61.4907085 C70.2240368,61.4907085 71.280894,62.5502379 71.280894,63.8596758" id="Fill-61"></path>
                    <path d="M123.773011,63.8596758 C123.773011,65.168081 122.716153,66.2296758 121.410018,66.2296758 C120.104913,66.2296758 119.045995,65.168081 119.045995,63.8596758 C119.045995,62.5502379 120.104913,61.4907085 121.410018,61.4907085 C122.716153,61.4907085 123.773011,62.5502379 123.773011,63.8596758" id="Fill-63"></path>
                    <path d="M18.7933098,63.8596758 C18.7933098,65.168081 17.7343925,66.2296758 16.4292872,66.2296758 C15.125212,66.2296758 14.0662947,65.168081 14.0662947,63.8596758 C14.0662947,62.5502379 15.125212,61.4907085 16.4292872,61.4907085 C17.7343925,61.4907085 18.7933098,62.5502379 18.7933098,63.8596758" id="Fill-65"></path>
                    <path d="M58.1589722,71.5382693 C58.1589722,72.8456418 57.102115,73.9072366 55.7970098,73.9072366 C54.4908744,73.9072366 53.4340173,72.8456418 53.4340173,71.5382693 C53.4340173,70.2288314 54.4908744,69.1672366 55.7970098,69.1672366 C57.102115,69.1672366 58.1589722,70.2288314 58.1589722,71.5382693" id="Fill-67"></path>
                    <path d="M84.405288,71.5382693 C84.405288,72.8456418 83.3463707,73.9072366 82.0412654,73.9072366 C80.7351301,73.9072366 79.6782729,72.8456418 79.6782729,71.5382693 C79.6782729,70.2288314 80.7351301,69.1672366 82.0412654,69.1672366 C83.3463707,69.1672366 84.405288,70.2288314 84.405288,71.5382693" id="Fill-69"></path>
                    <path d="M110.650059,71.5382693 C110.650059,72.8456418 109.593202,73.9072366 108.286036,73.9072366 C106.981961,73.9072366 105.925104,72.8456418 105.925104,71.5382693 C105.925104,70.2288314 106.981961,69.1672366 108.286036,69.1672366 C109.593202,69.1672366 110.650059,70.2288314 110.650059,71.5382693" id="Fill-71"></path>
                    <path d="M136.895859,71.5382693 C136.895859,72.8456418 135.837972,73.9072366 134.532867,73.9072366 C133.227762,73.9072366 132.169874,72.8456418 132.169874,71.5382693 C132.169874,70.2288314 133.227762,69.1672366 134.532867,69.1672366 C135.837972,69.1672366 136.895859,70.2288314 136.895859,71.5382693" id="Fill-73"></path>
                    <path d="M5.67149098,71.5382693 C5.67149098,72.8456418 4.61257368,73.9072366 3.3084985,73.9072366 C2.00339323,73.9072366 0.94447594,72.8456418 0.94447594,71.5382693 C0.94447594,70.2288314 2.00339323,69.1672366 3.3084985,69.1672366 C4.61257368,69.1672366 5.67149098,70.2288314 5.67149098,71.5382693" id="Fill-75"></path>
                    <path d="M31.9142015,71.5382693 C31.9142015,72.8456418 30.8573444,73.9072366 29.5532692,73.9072366 C28.2461038,73.9072366 27.1892466,72.8456418 27.1892466,71.5382693 C27.1892466,70.2288314 28.2461038,69.1672366 29.5532692,69.1672366 C30.8573444,69.1672366 31.9142015,70.2288314 31.9142015,71.5382693" id="Fill-77"></path>
                    <path d="M45.0371534,79.1754523 C45.0371534,80.4828248 43.9792662,81.5423542 42.6741609,81.5423542 C41.3700857,81.5423542 40.3111684,80.4828248 40.3111684,79.1754523 C40.3111684,77.8670471 41.3700857,76.8075176 42.6741609,76.8075176 C43.9792662,76.8075176 45.0371534,77.8670471 45.0371534,79.1754523" id="Fill-79"></path>
                    <path d="M71.280894,79.1754523 C71.280894,80.4828248 70.2240368,81.5423542 68.9189316,81.5423542 C67.6138263,81.5423542 66.5559391,80.4828248 66.5559391,79.1754523 C66.5559391,77.8670471 67.6138263,76.8075176 68.9189316,76.8075176 C70.2240368,76.8075176 71.280894,77.8670471 71.280894,79.1754523" id="Fill-81"></path>
                    <path d="M123.773011,79.1754523 C123.773011,80.4828248 122.716153,81.5423542 121.410018,81.5423542 C120.104913,81.5423542 119.045995,80.4828248 119.045995,79.1754523 C119.045995,77.8670471 120.104913,76.8075176 121.410018,76.8075176 C122.716153,76.8075176 123.773011,77.8670471 123.773011,79.1754523" id="Fill-83"></path>
                    <path d="M18.7933098,79.1754523 C18.7933098,80.4828248 17.7343925,81.5423542 16.4292872,81.5423542 C15.125212,81.5423542 14.0662947,80.4828248 14.0662947,79.1754523 C14.0662947,77.8670471 15.125212,76.8075176 16.4292872,76.8075176 C17.7343925,76.8075176 18.7933098,77.8670471 18.7933098,79.1754523" id="Fill-85"></path>
                    <path d="M66.5590293,155.572583 C66.5590293,154.264178 67.6179466,153.202583 68.9230519,153.202583 C70.226097,153.202583 71.2850143,154.264178 71.2850143,155.572583 C71.2850143,156.882021 70.226097,157.94155 68.9230519,157.94155 C67.6179466,157.94155 66.5590293,156.882021 66.5590293,155.572583" id="Fill-87"></path>
                    <path d="M79.6819812,147.932405 C79.6819812,146.621935 80.7388383,145.562405 82.0449737,145.562405 C83.3500789,145.562405 84.4069361,146.621935 84.4069361,147.932405 C84.4069361,149.239778 83.3500789,150.301373 82.0449737,150.301373 C80.7388383,150.301373 79.6819812,149.239778 79.6819812,147.932405" id="Fill-89"></path>
                    <path d="M53.4361805,147.932405 C53.4361805,146.624 54.4950977,145.562405 55.7991729,145.562405 C57.1063383,145.562405 58.1631955,146.624 58.1631955,147.932405 C58.1631955,149.239778 57.1063383,150.301373 55.7991729,150.301373 C54.4950977,150.301373 53.4361805,149.239778 53.4361805,147.932405" id="Fill-91"></path>
                    <path d="M40.3142586,140.293157 C40.3142586,138.983719 41.3711158,137.922124 42.6762211,137.922124 C43.9823564,137.922124 45.0392135,138.983719 45.0392135,140.293157 C45.0392135,141.600529 43.9823564,142.662124 42.6762211,142.662124 C41.3711158,142.662124 40.3142586,141.600529 40.3142586,140.293157" id="Fill-93"></path>
                    <path d="M66.5590293,140.293157 C66.5590293,138.983719 67.6158865,137.922124 68.9230519,137.922124 C70.226097,137.922124 71.2850143,138.983719 71.2850143,140.293157 C71.2850143,141.600529 70.226097,142.662124 68.9230519,142.662124 C67.6158865,142.662124 66.5590293,141.600529 66.5590293,140.293157" id="Fill-95"></path>
                    <path d="M53.4361805,132.652979 C53.4361805,131.342508 54.4950977,130.282979 55.7991729,130.282979 C57.1063383,130.282979 58.1631955,131.342508 58.1631955,132.652979 C58.1631955,133.960352 57.1063383,135.021946 55.7991729,135.021946 C54.4950977,135.021946 53.4361805,133.960352 53.4361805,132.652979" id="Fill-97"></path>
                    <path d="M27.1914098,132.652979 C27.1914098,131.342508 28.2482669,130.282979 29.5544023,130.282979 C30.8595075,130.282979 31.9184248,131.342508 31.9184248,132.652979 C31.9184248,133.960352 30.8595075,135.021946 29.5544023,135.021946 C28.2482669,135.021946 27.1914098,133.960352 27.1914098,132.652979" id="Fill-99"></path>
                    <path d="M105.927267,132.650914 C105.927267,131.342508 106.984124,130.282979 108.290259,130.282979 C109.594335,130.282979 110.651192,131.342508 110.651192,132.650914 C110.651192,133.960352 109.594335,135.021946 108.290259,135.021946 C106.984124,135.021946 105.927267,133.960352 105.927267,132.650914" id="Fill-101"></path>
                    <path d="M79.6819812,132.652979 C79.6819812,131.342508 80.7388383,130.282979 82.0449737,130.282979 C83.3500789,130.282979 84.4069361,131.342508 84.4069361,132.652979 C84.4069361,133.960352 83.3500789,135.021946 82.0449737,135.021946 C80.7388383,135.021946 79.6819812,133.960352 79.6819812,132.652979" id="Fill-103"></path>
                    <path d="M66.5590293,125.012698 C66.5590293,123.704293 67.6158865,122.642698 68.9230519,122.642698 C70.226097,122.642698 71.2850143,123.704293 71.2850143,125.012698 C71.2850143,126.320071 70.226097,127.381665 68.9230519,127.381665 C67.6158865,127.381665 66.5590293,126.320071 66.5590293,125.012698" id="Fill-105"></path>
                    <path d="M40.3142586,125.012698 C40.3142586,123.704293 41.3711158,122.642698 42.6762211,122.642698 C43.9823564,122.642698 45.0392135,123.704293 45.0392135,125.012698 C45.0392135,126.320071 43.9823564,127.381665 42.6762211,127.381665 C41.3711158,127.381665 40.3142586,126.320071 40.3142586,125.012698" id="Fill-107"></path>
                    <path d="M14.0684579,125.012698 C14.0684579,123.704293 15.1263451,122.642698 16.4314504,122.642698 C17.7365556,122.642698 18.7944429,123.704293 18.7944429,125.012698 C18.7944429,126.320071 17.7365556,127.381665 16.4314504,127.381665 C15.1263451,127.381665 14.0684579,126.320071 14.0684579,125.012698" id="Fill-109"></path>
                    <path d="M119.048159,125.012698 C119.048159,123.702227 120.107076,122.642698 121.411151,122.642698 C122.716256,122.642698 123.775174,123.702227 123.775174,125.012698 C123.775174,126.320071 122.716256,127.381665 121.411151,127.381665 C120.107076,127.381665 119.048159,126.320071 119.048159,125.012698" id="Fill-111"></path>
                    <path d="M79.6819812,117.373553 C79.6819812,116.064115 80.7388383,115.00252 82.0449737,115.00252 C83.3500789,115.00252 84.4069361,116.064115 84.4069361,117.373553 C84.4069361,118.680925 83.3500789,119.74252 82.0449737,119.74252 C80.7388383,119.74252 79.6819812,118.680925 79.6819812,117.373553" id="Fill-113"></path>
                    <path d="M53.4361805,117.373553 C53.4361805,116.064115 54.4950977,115.00252 55.7991729,115.00252 C57.1063383,115.00252 58.1631955,116.064115 58.1631955,117.373553 C58.1631955,118.680925 57.1063383,119.74252 55.7991729,119.74252 C54.4950977,119.74252 53.4361805,118.680925 53.4361805,117.373553" id="Fill-115"></path>
                    <path d="M27.1914098,117.373553 C27.1914098,116.064115 28.2482669,115.00252 29.5544023,115.00252 C30.8595075,115.00252 31.9184248,116.064115 31.9184248,117.373553 C31.9184248,118.680925 30.8595075,119.74252 29.5544023,119.74252 C28.2482669,119.74252 27.1914098,118.680925 27.1914098,117.373553" id="Fill-117"></path>
                    <path d="M0.94406391,117.373553 C0.94406391,116.064115 2.0029812,115.00252 3.30808647,115.00252 C4.61216165,115.00252 5.67107895,116.064115 5.67107895,117.373553 C5.67107895,118.680925 4.61216165,119.74252 3.30808647,119.74252 C2.0029812,119.74252 0.94406391,118.680925 0.94406391,117.373553" id="Fill-119"></path>
                    <path d="M132.171008,117.373553 C132.171008,116.06205 133.227865,115.00252 134.53297,115.00252 C135.839105,115.00252 136.895962,116.06205 136.895962,117.373553 C136.895962,118.680925 135.839105,119.740455 134.53297,119.740455 C133.227865,119.740455 132.171008,118.680925 132.171008,117.373553" id="Fill-121"></path>
                    <path d="M105.927267,117.373553 C105.927267,116.064115 106.984124,115.00252 108.290259,115.00252 C109.594335,115.00252 110.651192,116.064115 110.651192,117.373553 C110.651192,118.680925 109.594335,119.74252 108.290259,119.74252 C106.984124,119.74252 105.927267,118.680925 105.927267,117.373553" id="Fill-123"></path>
                    <path d="M66.5590293,109.733272 C66.5590293,108.424867 67.6179466,107.363272 68.9230519,107.363272 C70.2281571,107.363272 71.2850143,108.424867 71.2850143,109.733272 C71.2850143,111.04271 70.2281571,112.102239 68.9230519,112.102239 C67.6179466,112.102239 66.5590293,111.04271 66.5590293,109.733272" id="Fill-125"></path>
                    <path d="M40.3142586,109.733272 C40.3142586,108.424867 41.3711158,107.363272 42.6782812,107.363272 C43.9823564,107.363272 45.0412737,108.424867 45.0412737,109.733272 C45.0412737,111.04271 43.9823564,112.102239 42.6782812,112.102239 C41.3711158,112.102239 40.3142586,111.04271 40.3142586,109.733272" id="Fill-127"></path>
                    <path d="M14.0684579,109.733272 C14.0684579,108.424867 15.1263451,107.363272 16.4314504,107.363272 C17.7365556,107.363272 18.7944429,108.424867 18.7944429,109.733272 C18.7944429,111.04271 17.7365556,112.102239 16.4314504,112.102239 C15.1263451,112.102239 14.0684579,111.04271 14.0684579,109.733272" id="Fill-129"></path>
                    <path d="M119.050116,109.733272 C119.050116,108.424867 120.106973,107.363272 121.411048,107.363272 C122.716153,107.363272 123.775071,108.424867 123.775071,109.733272 C123.775071,111.04271 122.716153,112.102239 121.411048,112.102239 C120.106973,112.102239 119.050116,111.04271 119.050116,109.733272" id="Fill-131"></path>
                    <path d="M79.6819812,102.116226 C79.6819812,100.806788 80.7388383,99.7462261 82.0449737,99.7462261 C83.3500789,99.7462261 84.4069361,100.806788 84.4069361,102.116226 C84.4069361,103.425664 83.3500789,104.485193 82.0449737,104.485193 C80.7388383,104.485193 79.6819812,103.425664 79.6819812,102.116226" id="Fill-133"></path>
                    <path d="M53.4361805,102.116226 C53.4361805,100.806788 54.4950977,99.7462261 55.7991729,99.7462261 C57.1063383,99.7462261 58.1631955,100.806788 58.1631955,102.116226 C58.1631955,103.425664 57.1063383,104.485193 55.7991729,104.485193 C54.4950977,104.485193 53.4361805,103.425664 53.4361805,102.116226" id="Fill-135"></path>
                    <path d="M27.1914098,102.116226 C27.1914098,100.806788 28.2482669,99.7462261 29.5544023,99.7462261 C30.8595075,99.7462261 31.9184248,100.806788 31.9184248,102.116226 C31.9184248,103.425664 30.8595075,104.485193 29.5544023,104.485193 C28.2482669,104.485193 27.1914098,103.425664 27.1914098,102.116226" id="Fill-137"></path>
                    <path d="M0.94406391,102.116226 C0.94406391,100.806788 2.0029812,99.7462261 3.30808647,99.7462261 C4.61216165,99.7462261 5.67107895,100.806788 5.67107895,102.116226 C5.67107895,103.425664 4.61216165,104.485193 3.30808647,104.485193 C2.0029812,104.485193 0.94406391,103.425664 0.94406391,102.116226" id="Fill-139"></path>
                    <path d="M132.171008,102.116226 C132.171008,100.806788 133.227865,99.7462261 134.53297,99.7462261 C135.839105,99.7462261 136.895962,100.806788 136.895962,102.116226 C136.895962,103.425664 135.839105,104.485193 134.53297,104.485193 C133.227865,104.485193 132.171008,103.425664 132.171008,102.116226" id="Fill-141"></path>
                    <path d="M105.927267,102.116226 C105.927267,100.806788 106.984124,99.7462261 108.290259,99.7462261 C109.594335,99.7462261 110.651192,100.806788 110.651192,102.116226 C110.651192,103.425664 109.594335,104.485193 108.290259,104.485193 C106.984124,104.485193 105.927267,103.425664 105.927267,102.116226" id="Fill-143"></path>
                    <path d="M97.5282398,18.0441163 C97.5282398,19.3545869 96.4693226,20.4141163 95.1652474,20.4141163 C93.8601421,20.4141163 92.8012248,19.3545869 92.8012248,18.0441163 C92.8012248,16.7367438 93.8601421,15.6772144 95.1652474,15.6772144 C96.4693226,15.6772144 97.5282398,16.7367438 97.5282398,18.0441163" id="Fill-145"></path>
                    <path d="M97.5282398,33.3250915 C97.5282398,34.6345294 96.4693226,35.6940588 95.1652474,35.6940588 C93.8601421,35.6940588 92.8012248,34.6345294 92.8012248,33.3250915 C92.8012248,32.0166863 93.8601421,30.9550915 95.1652474,30.9550915 C96.4693226,30.9550915 97.5282398,32.0166863 97.5282398,33.3250915" id="Fill-147"></path>
                    <path d="M97.5261797,48.6045176 C97.5261797,49.9118902 96.4693226,50.973485 95.1652474,50.973485 C93.858082,50.973485 92.8012248,49.9118902 92.8012248,48.6045176 C92.8012248,47.2940471 93.858082,46.2345176 95.1652474,46.2345176 C96.4693226,46.2345176 97.5261797,47.2940471 97.5261797,48.6045176" id="Fill-149"></path>
                    <path d="M97.5261797,63.8596758 C97.5261797,65.168081 96.4693226,66.2296758 95.1652474,66.2296758 C93.858082,66.2296758 92.8012248,65.168081 92.8012248,63.8596758 C92.8012248,62.5502379 93.858082,61.4907085 95.1652474,61.4907085 C96.4693226,61.4907085 97.5261797,62.5502379 97.5261797,63.8596758" id="Fill-151"></path>
                    <path d="M97.5261797,79.1754523 C97.5261797,80.4828248 96.4693226,81.5423542 95.1652474,81.5423542 C93.858082,81.5423542 92.8012248,80.4828248 92.8012248,79.1754523 C92.8012248,77.8670471 93.858082,76.8075176 95.1652474,76.8075176 C96.4693226,76.8075176 97.5261797,77.8670471 97.5261797,79.1754523" id="Fill-153"></path>
                    <path d="M92.803285,140.293157 C92.803285,138.981654 93.8622023,137.922124 95.1673075,137.922124 C96.4734429,137.922124 97.5303,138.981654 97.5303,140.293157 C97.5303,141.600529 96.4734429,142.662124 95.1673075,142.662124 C93.8622023,142.662124 92.803285,141.600529 92.803285,140.293157" id="Fill-155"></path>
                    <path d="M92.803285,125.012698 C92.803285,123.704293 93.8622023,122.642698 95.1673075,122.642698 C96.4734429,122.642698 97.5303,123.704293 97.5303,125.012698 C97.5303,126.320071 96.4734429,127.381665 95.1673075,127.381665 C93.8622023,127.381665 92.803285,126.320071 92.803285,125.012698" id="Fill-157"></path>
                    <path d="M92.8053451,109.733272 C92.8053451,108.424867 93.8622023,107.363272 95.1673075,107.363272 C96.4734429,107.363272 97.5303,108.424867 97.5303,109.733272 C97.5303,111.04271 96.4734429,112.102239 95.1673075,112.102239 C93.8622023,112.102239 92.8053451,111.04271 92.8053451,109.733272" id="Fill-159"></path>
                    <path d="M92.8053451,94.4781137 C92.8053451,93.1676431 93.8622023,92.1081137 95.1673075,92.1081137 C96.4734429,92.1081137 97.5303,93.1676431 97.5303,94.4781137 C97.5303,95.7854863 96.4734429,96.8450157 95.1673075,96.8450157 C93.8622023,96.8450157 92.8053451,95.7854863 92.8053451,94.4781137" id="Fill-161"></path>
                    <path d="M66.5590293,94.4781137 C66.5590293,93.1676431 67.6179466,92.1081137 68.9230519,92.1081137 C70.2281571,92.1081137 71.2850143,93.1676431 71.2850143,94.4781137 C71.2850143,95.7854863 70.2281571,96.8450157 68.9230519,96.8450157 C67.6179466,96.8450157 66.5590293,95.7854863 66.5590293,94.4781137" id="Fill-163"></path>
                    <path d="M40.3142586,94.4781137 C40.3142586,93.1676431 41.3711158,92.1081137 42.6782812,92.1081137 C43.9823564,92.1081137 45.0412737,93.1676431 45.0412737,94.4781137 C45.0412737,95.7854863 43.9823564,96.8450157 42.6782812,96.8450157 C41.3711158,96.8450157 40.3142586,95.7854863 40.3142586,94.4781137" id="Fill-165"></path>
                    <path d="M14.0684579,94.4781137 C14.0684579,93.1676431 15.1263451,92.1081137 16.4314504,92.1081137 C17.7365556,92.1081137 18.7944429,93.1676431 18.7944429,94.4781137 C18.7944429,95.7854863 17.7365556,96.8450157 16.4314504,96.8450157 C15.1263451,96.8450157 14.0684579,95.7854863 14.0684579,94.4781137" id="Fill-167"></path>
                    <path d="M119.050116,94.4781137 C119.050116,93.1676431 120.106973,92.1081137 121.411048,92.1081137 C122.716153,92.1081137 123.775071,93.1676431 123.775071,94.4781137 C123.775071,95.7854863 122.716153,96.8450157 121.411048,96.8450157 C120.106973,96.8450157 119.050116,95.7854863 119.050116,94.4781137" id="Fill-169"></path>
                    <path d="M79.6819812,86.7995203 C79.6819812,85.4900824 80.7388383,84.4305529 82.0449737,84.4305529 C83.3500789,84.4305529 84.4069361,85.4900824 84.4069361,86.7995203 C84.4069361,88.1089582 83.3500789,89.1684876 82.0449737,89.1684876 C80.7388383,89.1684876 79.6819812,88.1089582 79.6819812,86.7995203" id="Fill-171"></path>
                    <path d="M53.4361805,86.7995203 C53.4361805,85.4900824 54.4950977,84.4305529 55.7991729,84.4305529 C57.1063383,84.4305529 58.1631955,85.4900824 58.1631955,86.7995203 C58.1631955,88.1089582 57.1063383,89.1684876 55.7991729,89.1684876 C54.4950977,89.1684876 53.4361805,88.1089582 53.4361805,86.7995203" id="Fill-173"></path>
                    <path d="M27.1914098,86.7995203 C27.1914098,85.4900824 28.2482669,84.4305529 29.5544023,84.4305529 C30.8595075,84.4305529 31.9184248,85.4900824 31.9184248,86.7995203 C31.9184248,88.1089582 30.8595075,89.1684876 29.5544023,89.1684876 C28.2482669,89.1684876 27.1914098,88.1089582 27.1914098,86.7995203" id="Fill-175"></path>
                    <path d="M0.94406391,86.7995203 C0.94406391,85.4900824 2.0029812,84.4305529 3.30808647,84.4305529 C4.61216165,84.4305529 5.67107895,85.4900824 5.67107895,86.7995203 C5.67107895,88.1089582 4.61216165,89.1684876 3.30808647,89.1684876 C2.0029812,89.1684876 0.94406391,88.1089582 0.94406391,86.7995203" id="Fill-177"></path>
                    <path d="M132.171008,86.7995203 C132.171008,85.4900824 133.227865,84.4305529 134.53297,84.4305529 C135.839105,84.4305529 136.895962,85.4900824 136.895962,86.7995203 C136.895962,88.1089582 135.839105,89.1684876 134.53297,89.1684876 C133.227865,89.1684876 132.171008,88.1089582 132.171008,86.7995203" id="Fill-179"></path>
                    <path d="M105.927267,86.7995203 C105.927267,85.4900824 106.984124,84.4305529 108.290259,84.4305529 C109.594335,84.4305529 110.651192,85.4900824 110.651192,86.7995203 C110.651192,88.1089582 109.594335,89.1684876 108.290259,89.1684876 C106.984124,89.1684876 105.927267,88.1089582 105.927267,86.7995203" id="Fill-181"></path>
                </g>
            </g>
            <g id="cafienne" transform="translate(214.000000, 192.000000)">
                <g>
                    <path d="M14.8024567,4.40109677 C17.2753956,4.40109677 19.6099344,5.27883871 21.5552233,6.93754839 L21.7474456,7.10206452 L24.1021678,4.01206452 L23.9378178,3.86109677 C21.5158178,1.66335484 18.3566456,0.501096774 14.8024567,0.501096774 C6.72720111,0.501096774 0.400206667,6.87077419 0.400206667,15.0036774 C0.400206667,23.1346452 6.72720111,29.5062581 14.8024567,29.5062581 C18.3566456,29.5062581 21.5158178,28.344 23.9378178,26.1452903 L24.1021678,25.9943226 L21.7474456,22.9043226 L21.5552233,23.0707742 C19.6099344,24.7294839 17.2753956,25.6052903 14.8024567,25.6052903 C8.93391222,25.6052903 4.50799556,21.0462581 4.50799556,15.0036774 C4.50799556,8.95916129 8.93391222,4.40109677 14.8024567,4.40109677" id="Fill-183"></path>
                    <path d="M43.0045322,22.8307742 C41.81756,24.7188387 39.6243044,25.8423871 37.1177267,25.8423871 C33.5174044,25.8423871 30.8041878,22.9556129 30.8041878,19.1281935 C30.8041878,15.3017419 33.5174044,12.4159355 37.1177267,12.4159355 C39.6223822,12.4159355 41.81756,13.5404516 43.0045322,15.4265806 L43.0045322,22.8307742 Z M43.0045322,10.7504516 C41.3927489,9.45851613 39.2965656,8.75206452 37.0389156,8.75206452 C31.22996,8.75206452 26.8511378,13.2133548 26.8511378,19.1281935 C26.8511378,25.0459355 31.22996,29.5062581 37.0389156,29.5062581 C39.2965656,29.5062581 41.3927489,28.8027097 43.0045322,27.5098065 L43.0045322,29.1927097 L46.8403267,29.1927097 L46.8403267,9.06464516 L43.0045322,9.06464516 L43.0045322,10.7504516 Z" id="Fill-185"></path>
                    <path d="M52.8348728,5.84990323 C52.8348728,7.03345161 53.2414228,8.17732258 53.9680228,9.06474194 L51.0001117,9.06474194 L51.0001117,12.6124839 L54.3553506,12.6124839 L54.3553506,29.1928065 L58.191145,29.1928065 L58.191145,12.6124839 L63.6137339,12.6124839 L63.6137339,9.06474194 L59.0590283,9.06474194 C57.8691728,8.99409677 56.590895,8.19183871 56.590895,6.59603226 C56.590895,4.58022581 58.4967783,4.36248387 59.3166061,4.36248387 L63.6137339,4.36248387 L63.6137339,0.815709677 L58.7716561,0.815709677 C55.276095,0.815709677 52.8348728,2.88570968 52.8348728,5.84990323" id="Fill-187"></path>
                    <path d="M74.9661861,9.06503226 L74.9661861,25.6443871 L80.3906972,25.6443871 L80.3906972,29.1930968 L65.7087639,29.1930968 L65.7087639,25.6443871 L71.1313528,25.6443871 L71.1313528,12.6127742 L67.2686472,12.6127742 L67.2686472,9.06503226 L74.9661861,9.06503226 Z M71.2780183,5.26490323 L71.2097794,5.202 C70.6802072,4.71619355 70.3899517,4.00974194 70.3899517,3.21716129 C70.3899517,1.69393548 71.5586628,0.500709677 73.0503072,0.500709677 C74.5400294,0.500709677 75.7077794,1.69393548 75.7077794,3.21716129 C75.7077794,4.00974194 75.418485,4.71619355 74.8898739,5.202 L74.821635,5.26490323 L71.2780183,5.26490323 Z" id="Fill-191"></path>
                    <path d="M92.6777339,12.3387097 L92.773845,12.3387097 C95.6591006,12.3387097 97.8052617,14.066129 98.318495,16.7670968 L87.012945,16.7670968 C87.765495,14.1048387 90.0048839,12.3387097 92.6777339,12.3387097 L92.6777339,12.3387097 Z M102.628117,19.9519355 C102.552189,13.1487097 98.7212006,8.75225806 92.8670728,8.75225806 C87.2426506,8.75225806 82.8359561,13.3103226 82.8359561,19.1283871 C82.8359561,25.046129 87.2493783,29.5064516 93.1015839,29.5064516 C96.2319228,29.5064516 99.1546617,28.32 101.119173,26.25 L101.273912,26.0864516 L98.8057783,23.3767742 L98.629895,23.5548387 C97.1843839,25.0093548 95.1708561,25.8425806 93.1015839,25.8425806 C89.8338061,25.8425806 87.2282339,23.4822581 86.8149561,20.1948387 L102.631001,20.1948387 L102.628117,19.9519355 Z" id="Fill-193"></path>
                    <path d="M117.094569,8.75216129 C115.351114,8.75216129 112.991586,9.14119355 111.287536,10.9053871 L111.287536,9.06474194 L107.451742,9.06474194 L107.451742,29.1928065 L111.287536,29.1928065 L111.287536,16.2947419 C111.986264,13.793129 113.784503,12.4160323 116.353553,12.4160323 C119.151347,12.4160323 121.031281,14.3253871 121.031281,17.1637742 L121.031281,29.1928065 L124.866114,29.1928065 L124.866114,16.9673226 C124.866114,12.053129 121.742503,8.75216129 117.094569,8.75216129" id="Fill-195"></path>
                    <path d="M140.424965,8.75216129 C138.682471,8.75216129 136.321982,9.14119355 134.617932,10.9053871 L134.617932,9.06474194 L130.783098,9.06474194 L130.783098,29.1928065 L134.617932,29.1928065 L134.617932,16.2947419 C135.317621,13.793129 137.113937,12.4160323 139.683948,12.4160323 C142.481743,12.4160323 144.361676,14.3253871 144.361676,17.1637742 L144.361676,29.1928065 L148.196509,29.1928065 L148.196509,16.9673226 C148.196509,12.053129 145.072898,8.75216129 140.424965,8.75216129" id="Fill-197"></path>
                    <path d="M156.9629,16.7671935 C157.716411,14.1049355 159.954839,12.3388065 162.627689,12.3388065 L162.7238,12.3388065 C165.608094,12.3388065 167.757139,14.0662258 168.270372,16.7671935 L156.9629,16.7671935 Z M168.57985,23.5549355 C167.1353,25.0094516 165.120811,25.8426774 163.051539,25.8426774 C159.786644,25.8426774 157.180111,23.4833226 156.764911,20.1949355 L172.582878,20.1949355 L172.579033,19.9520323 C172.502144,13.1488065 168.671156,8.75235484 162.817989,8.75235484 C157.191644,8.75235484 152.78495,13.3104194 152.78495,19.1275161 C152.78495,25.0462258 157.199333,29.5065484 163.051539,29.5065484 C166.184761,29.5065484 169.104617,28.3200968 171.069128,26.2500968 L171.224828,26.0865484 L168.756694,23.376871 L168.57985,23.5549355 Z" id="Fill-199"></path>
                </g>
            </g>
        </g>
    </g>
</svg>